<svg width="14" height="18" viewBox="0 0 14 18" fill="none" xmlns="http://www.w3.org/2000/svg">
<path d="M11 14.01V7.99999C11 7.44999 10.55 6.99999 10 6.99999C9.45003 6.99999 9.00003 7.44999 9.00003 7.99999V14.01H7.21003C6.76003 14.01 6.54003 14.55 6.86003 14.86L9.65003 17.64C9.85003 17.83 10.16 17.83 10.36 17.64L13.15 14.86C13.47 14.55 13.24 14.01 12.8 14.01H11ZM3.65003 0.349989L0.860031 3.13999C0.540031 3.44999 0.76003 3.98999 1.21003 3.98999H3.00003V9.99999C3.00003 10.55 3.45003 11 4.00003 11C4.55003 11 5.00003 10.55 5.00003 9.99999V3.98999H6.79003C7.24003 3.98999 7.46003 3.44999 7.14003 3.13999L4.35003 0.349989C4.16003 0.159989 3.84003 0.159989 3.65003 0.349989Z" fill="#787E82"/>
</svg>
