<svg width="18" height="19" viewBox="0 0 18 19" fill="none" xmlns="http://www.w3.org/2000/svg">
<path d="M9.59993 16.06C9.23993 16.34 8.72993 16.34 8.36993 16.06L2.21993 11.28C1.85993 11 1.35993 11 0.999932 11.28C0.489932 11.68 0.489932 12.45 0.999932 12.85L7.75993 18.11C8.47993 18.67 9.48993 18.67 10.2199 18.11L16.9799 12.85C17.4899 12.45 17.4899 11.68 16.9799 11.28L16.9699 11.27C16.6099 10.99 16.1099 10.99 15.7499 11.27L9.59993 16.06ZM10.2299 13.04L16.9899 7.78C17.4999 7.38 17.4999 6.6 16.9899 6.2L10.2299 0.94C9.50993 0.38 8.49993 0.38 7.76993 0.94L1.00993 6.21C0.499932 6.61 0.499932 7.39 1.00993 7.79L7.76993 13.05C8.48993 13.61 9.50993 13.61 10.2299 13.04Z" fill="#787E82"/>
</svg>
