<svg width="91" height="40" viewBox="0 0 91 40" fill="none" xmlns="http://www.w3.org/2000/svg">
<path d="M48.451 13.1809C46.789 11.0331 44.4569 10 41.4545 10C38.5862 10 36.12 11.1418 34.0559 13.344C32.0455 15.5733 31 18.2648 31 21.5C31 24.7352 32.0186 27.4811 34.0559 29.6832C36.12 31.9125 38.5594 33 41.4545 33C44.4569 33 46.789 31.9669 48.451 29.8191V32.4019H54V10.6253H48.451V13.1809ZM46.7354 25.9586C45.6096 27.1005 44.1888 27.6442 42.4732 27.6442C40.7576 27.6442 39.3368 27.0733 38.211 25.9586C37.0851 24.7896 36.549 23.2943 36.549 21.5272C36.549 19.76 37.1119 18.2648 38.211 17.1229C39.3368 15.9539 40.7576 15.383 42.4732 15.383C44.1888 15.383 45.6096 15.9539 46.7354 17.1229C47.8881 18.2648 48.451 19.7329 48.451 21.5272C48.451 23.3215 47.9149 24.7896 46.7354 25.9586Z" fill="white"/>
<path d="M87.4863 1C85.5922 1 84 2.61961 84 4.51373C84 6.40784 85.5922 8 87.4863 8C89.4078 8 91 6.40784 91 4.51373C91 2.61961 89.4078 1 87.4863 1Z" fill="white"/>
<path d="M91 10H85V31H91V10Z" fill="white"/>
<path d="M70.5186 31.9248C67.5163 31.9248 65.1841 30.8951 63.5489 28.7544V40H58V9.59616H63.5489V12.1705C65.1841 10.0297 67.4895 9 70.5186 9C73.3869 9 75.88 10.0839 77.9172 12.3059C79.9814 14.528 81 17.2649 81 20.4624C81 23.66 79.9814 26.3698 77.9172 28.5918C75.88 30.8138 73.3869 31.9248 70.5186 31.9248ZM73.7354 16.0455C72.6096 14.9073 71.1888 14.3654 69.4732 14.3654C67.7576 14.3654 66.3368 14.9344 65.211 16.0455C64.0851 17.2107 63.5489 18.701 63.5489 20.4624C63.5489 22.2238 64.1119 23.7142 65.211 24.8523C66.3368 26.0175 67.7576 26.5865 69.4732 26.5865C71.1888 26.5865 72.6096 26.0175 73.7354 24.8523C74.8881 23.7142 75.451 22.2509 75.451 20.4624C75.451 18.674 74.8881 17.2107 73.7354 16.0455Z" fill="white"/>
<path d="M15.6925 26.1965C12.7586 26.1965 10.3899 25.283 8.58646 23.4559C6.80995 21.602 5.9217 19.2376 5.9217 16.3627C5.9217 13.4341 6.83687 11.0697 8.58646 9.21579C10.3899 7.33501 12.7586 6.44836 15.6925 6.44836H15.7732C16.7692 6.44836 17.792 6.52897 18.761 6.82452C17.9266 7.52309 17.1191 8.24853 16.3923 9.10831C15.5579 10.0756 14.8042 11.204 14.2928 12.5474C14.0237 13.2191 13.8352 13.9715 13.7814 14.7775C13.7276 15.5835 13.8083 16.4165 14.0506 17.2494C14.3197 18.0823 14.7504 18.8615 15.3695 19.5332C15.9617 20.178 16.6884 20.6885 17.5228 21.0378C18.3573 21.3871 19.2455 21.5214 20.0799 21.4677C20.9144 21.4408 21.7219 21.2527 22.4486 20.9572C23.9021 20.3661 25.0865 19.372 25.9478 18.1898C26.8091 17.0344 27.3744 15.6641 27.6705 14.3207C27.8051 13.649 27.8858 12.9505 27.8858 12.2788C27.8858 11.9295 27.8858 11.6071 27.8589 11.2846C27.832 10.9085 27.7781 10.5592 27.7243 10.2099C27.5628 9.32326 27.2936 8.51721 26.9168 7.73804C27.0245 7.6843 27.1321 7.63056 27.2398 7.60369C29.0971 6.79765 31.0351 6.07221 33 5.50798L31.0082 0C28.9625 0.859782 26.8899 1.7733 24.898 2.84803C24.4674 3.06297 24.0367 3.30479 23.633 3.5466C23.5522 3.466 23.4445 3.41226 23.3638 3.33165C22.2602 2.49874 21.0489 1.8539 19.7569 1.42401C18.438 0.967255 17.4959 0.671704 15.7732 0.671704H15.6925C11.1705 0.671704 7.40212 2.17632 4.44127 5.18556C1.45351 8.16793 0 11.9026 0 16.3359C0 20.7691 1.45351 24.4769 4.44127 27.4861C7.42904 30.4954 11.1705 32 15.6925 32C21.2104 32 26.0824 29.2594 28.6664 24.9068L23.5522 21.9244C22.1256 24.5575 19.1378 26.1965 15.6925 26.1965ZM22.9331 13.3804C22.7985 14.1327 22.5294 14.8044 22.0987 15.3686C21.6949 15.9328 21.1566 16.3627 20.6183 16.5777C20.3491 16.6851 20.0799 16.7389 19.8646 16.7657C19.6223 16.7657 19.4339 16.7389 19.2724 16.6851C19.1109 16.6314 18.9494 16.4971 18.8148 16.3627C18.7072 16.2284 18.5995 16.0672 18.5457 15.8791C18.4111 15.4761 18.438 14.9387 18.7072 14.2939C18.9494 13.649 19.4339 12.9773 19.9992 12.3325C20.5914 11.6877 21.2912 11.0697 22.0449 10.5055C22.2064 10.3711 22.3679 10.2636 22.5563 10.1562C22.7178 10.5055 22.8254 10.8547 22.9062 11.1772C22.96 11.3384 22.96 11.5264 22.9869 11.6877C23.0139 11.8757 23.0139 12.0907 23.0139 12.2788C23.0408 12.628 22.9869 13.0042 22.9331 13.3804Z" fill="white"/>
</svg>
