<svg width="22" height="23" viewBox="0 0 22 23" fill="none" xmlns="http://www.w3.org/2000/svg">
<path fill-rule="evenodd" clip-rule="evenodd" d="M22 11.5C22 17.5751 17.0752 22.5 11 22.5C4.92488 22.5 0 17.5751 0 11.5C0 5.42487 4.92488 0.5 11 0.5C17.0752 0.5 22 5.42487 22 11.5ZM8.93808 19.1482C8.93808 19.4071 8.7353 19.5537 8.4851 19.4761C5.15924 18.4149 2.74786 15.2961 2.74786 11.6165C2.74786 7.93686 5.15924 4.81803 8.4851 3.75686C8.7353 3.67921 8.93808 3.82588 8.93808 4.0847V4.72313C8.93808 4.89568 8.80433 5.09842 8.64043 5.15451C6.00902 6.12078 4.12394 8.64862 4.12394 11.6122C4.12394 14.5757 6.00902 17.1035 8.64043 18.0698C8.80433 18.1302 8.93808 18.3286 8.93808 18.5012V19.1482ZM11.6859 16.7714C11.6859 16.9612 11.5306 17.1165 11.3408 17.1165H10.6549C10.4651 17.1165 10.3098 16.9612 10.3098 16.7714V15.6843C8.80862 15.4816 8.0753 14.6404 7.87685 13.4972C7.84236 13.3031 7.99764 13.1263 8.19608 13.1263H8.98115C9.1451 13.1263 9.28313 13.2427 9.31763 13.4067C9.46429 14.0882 9.85685 14.6102 11.0604 14.6102C11.949 14.6102 12.5788 14.1141 12.5788 13.3721C12.5788 12.6302 12.2079 12.3498 10.9051 12.1341C8.98115 11.8753 8.07096 11.2929 8.07096 9.78313C8.07096 8.61842 8.95099 7.71254 10.3141 7.51842V6.45293C10.3141 6.26312 10.4694 6.10783 10.6592 6.10783H11.3451C11.5349 6.10783 11.6902 6.26312 11.6902 6.45293V7.54862C12.7988 7.74705 13.5019 8.37685 13.7306 9.42077C13.7737 9.6192 13.6184 9.80469 13.4157 9.80469H12.691C12.5357 9.80469 12.4063 9.70117 12.3588 9.55019C12.1647 8.88587 11.6902 8.60117 10.8663 8.60117C9.95609 8.60117 9.48587 9.04116 9.48587 9.65803C9.48587 10.3094 9.75331 10.6372 11.151 10.84C13.0404 11.0988 14.0153 11.638 14.0153 13.247C14.0153 14.4678 13.1094 15.4557 11.6902 15.6843V16.7714H11.6859ZM13.062 19.1482C13.062 19.407 13.2647 19.5537 13.5149 19.4761C16.8408 18.4106 19.2478 15.2961 19.2522 11.6251C19.2522 7.94548 16.8408 4.82666 13.5149 3.76548C13.2647 3.68352 13.062 3.8345 13.062 4.09332V4.73175C13.062 4.9043 13.1957 5.10274 13.3596 5.16313C15.991 6.1294 17.8761 8.65725 17.8761 11.6208C17.8761 14.5843 15.991 17.1121 13.3596 18.0784C13.1784 18.1431 13.062 18.32 13.062 18.5098V19.1482Z" fill="#2775CA"/>
</svg>
