<svg width="56" height="57" viewBox="0 0 56 57" fill="none" xmlns="http://www.w3.org/2000/svg">
<path d="M0 28.5C0 13.036 12.536 0.5 28 0.5C43.464 0.5 56 13.036 56 28.5C56 43.964 43.464 56.5 28 56.5C12.536 56.5 0 43.964 0 28.5Z" fill="#FFECEC"/>
<path d="M19.3826 22.4566L31.0389 34.1129H20.854C20.04 34.1129 19.3721 34.7808 19.3721 35.5948C19.3721 36.4087 20.0296 37.0662 20.8435 37.0662L34.5974 37.0662C35.4114 37.0662 36.0688 36.4087 36.0688 35.5948L36.0897 21.8409C36.0897 21.0269 35.4322 20.3695 34.6183 20.3695C33.8043 20.3695 33.1469 21.0269 33.1469 21.8409L33.126 32.0259L21.4697 20.3695C20.8957 19.7956 19.9565 19.7956 19.3826 20.3695C18.8086 20.9435 18.8086 21.8826 19.3826 22.4566Z" fill="#E84F5F"/>
</svg>
