<svg width="56" height="57" viewBox="0 0 56 57" fill="none" xmlns="http://www.w3.org/2000/svg">
<path d="M0 28.5C0 13.036 12.536 0.5 28 0.5V0.5C43.464 0.5 56 13.036 56 28.5V28.5C56 43.964 43.464 56.5 28 56.5V56.5C12.536 56.5 0 43.964 0 28.5V28.5Z" fill="#E7F9F1"/>
<path d="M21.4692 36.6305L33.1255 24.9741V35.1591C33.1255 35.9731 33.7934 36.6409 34.6073 36.6409C35.4213 36.6409 36.0787 35.9835 36.0787 35.1695L36.0787 21.4157C36.0787 20.6017 35.4213 19.9443 34.6073 19.9443L20.8535 19.9234C20.0395 19.9234 19.3821 20.5808 19.3821 21.3948C19.3821 22.2087 20.0395 22.8662 20.8535 22.8662L31.0384 22.887L19.3821 34.5434C18.8081 35.1174 18.8081 36.0565 19.3821 36.6305C19.956 37.2044 20.8952 37.2044 21.4692 36.6305Z" fill="#6BBE8C"/>
</svg>
