<svg width="16" height="16" viewBox="0 0 16 16" fill="none" xmlns="http://www.w3.org/2000/svg">
<path d="M0 8C0 3.58172 3.58172 0 8 0V0C12.4183 0 16 3.58172 16 8V8C16 12.4183 12.4183 16 8 16V16C3.58172 16 0 12.4183 0 8V8Z" fill="#E84F5F"/>
<path d="M4.18844 5.26999L9.45403 10.5356L4.85312 10.5356C4.48542 10.5356 4.18373 10.8373 4.18373 11.205C4.18373 11.5727 4.48071 11.8697 4.84841 11.8697L11.0615 11.8697C11.4292 11.8697 11.7262 11.5727 11.7262 11.205L11.7356 4.99187C11.7356 4.62417 11.4386 4.32719 11.0709 4.32719C10.7032 4.32719 10.4063 4.62417 10.4063 4.99187L10.3968 9.59277L5.13125 4.32719C4.87198 4.06791 4.44771 4.06791 4.18844 4.32719C3.92917 4.58646 3.92917 5.01072 4.18844 5.26999Z" fill="white"/>
</svg>
