<svg width="20" height="19" viewBox="0 0 20 19" fill="none" xmlns="http://www.w3.org/2000/svg">
<path d="M8.3 5.2C7.91 5.59 7.91 6.21 8.3 6.6L10.2 8.5H1C0.45 8.5 0 8.95 0 9.5C0 10.05 0.45 10.5 1 10.5H10.2L8.3 12.4C7.91 12.79 7.91 13.41 8.3 13.8C8.69 14.19 9.31 14.19 9.7 13.8L13.29 10.21C13.68 9.82 13.68 9.19 13.29 8.8L9.7 5.2C9.31 4.81 8.69 4.81 8.3 5.2ZM18 16.5H11C10.45 16.5 10 16.95 10 17.5C10 18.05 10.45 18.5 11 18.5H18C19.1 18.5 20 17.6 20 16.5V2.5C20 1.4 19.1 0.5 18 0.5H11C10.45 0.5 10 0.95 10 1.5C10 2.05 10.45 2.5 11 2.5H18V16.5Z" fill="#787E82"/>
</svg>
