<svg width="16" height="16" viewBox="0 0 16 16" fill="none" xmlns="http://www.w3.org/2000/svg">
<path d="M0 8C0 3.58172 3.58172 0 8 0V0C12.4183 0 16 3.58172 16 8V8C16 12.4183 12.4183 16 8 16V16C3.58172 16 0 12.4183 0 8V8Z" fill="#6BBE8C"/>
<path d="M5.13083 11.6728L10.3964 6.40724V11.0081C10.3964 11.3758 10.6981 11.6775 11.0658 11.6775C11.4335 11.6775 11.7305 11.3806 11.7305 11.0129L11.7305 4.79975C11.7305 4.43205 11.4335 4.13507 11.0658 4.13507L4.85271 4.12564C4.48501 4.12564 4.18803 4.42263 4.18803 4.79032C4.18803 5.15802 4.48501 5.455 4.85271 5.455L9.45361 5.46443L4.18803 10.73C3.92875 10.9893 3.92875 11.4136 4.18803 11.6728C4.4473 11.9321 4.87156 11.9321 5.13083 11.6728Z" fill="white"/>
</svg>
