<svg width="12" height="14" viewBox="0 0 12 14" fill="none" xmlns="http://www.w3.org/2000/svg">
<path d="M8.21053 0.5H1.26316C0.568421 0.5 0 1.03182 0 1.68182V9.36364C0 9.68864 0.284211 9.95455 0.631579 9.95455C0.978947 9.95455 1.26316 9.68864 1.26316 9.36364V2.27273C1.26316 1.94773 1.54737 1.68182 1.89474 1.68182H8.21053C8.5579 1.68182 8.84211 1.41591 8.84211 1.09091C8.84211 0.765909 8.5579 0.5 8.21053 0.5ZM10.7368 2.86364H3.78947C3.09474 2.86364 2.52632 3.39545 2.52632 4.04545V12.3182C2.52632 12.9682 3.09474 13.5 3.78947 13.5H10.7368C11.4316 13.5 12 12.9682 12 12.3182V4.04545C12 3.39545 11.4316 2.86364 10.7368 2.86364ZM10.1053 12.3182H4.42105C4.07368 12.3182 3.78947 12.0523 3.78947 11.7273V4.63636C3.78947 4.31136 4.07368 4.04545 4.42105 4.04545H10.1053C10.4526 4.04545 10.7368 4.31136 10.7368 4.63636V11.7273C10.7368 12.0523 10.4526 12.3182 10.1053 12.3182Z" fill="#787E82"/>
</svg>
