<svg width="19" height="23" viewBox="0 0 19 23" fill="none" xmlns="http://www.w3.org/2000/svg">
<path d="M13 0.5H2C0.9 0.5 0 1.4 0 2.5V15.5C0 16.05 0.45 16.5 1 16.5C1.55 16.5 2 16.05 2 15.5V3.5C2 2.95 2.45 2.5 3 2.5H13C13.55 2.5 14 2.05 14 1.5C14 0.95 13.55 0.5 13 0.5ZM17 4.5H6C4.9 4.5 4 5.4 4 6.5V20.5C4 21.6 4.9 22.5 6 22.5H17C18.1 22.5 19 21.6 19 20.5V6.5C19 5.4 18.1 4.5 17 4.5ZM16 20.5H7C6.45 20.5 6 20.05 6 19.5V7.5C6 6.95 6.45 6.5 7 6.5H16C16.55 6.5 17 6.95 17 7.5V19.5C17 20.05 16.55 20.5 16 20.5Z" fill="#787E82"/>
</svg>
