<svg width="52" height="52" viewBox="0 0 52 52" fill="none" xmlns="http://www.w3.org/2000/svg">
<path d="M25.9994 0.166656C11.7393 0.166656 0.166016 11.74 0.166016 26C0.166016 40.26 11.7393 51.8333 25.9994 51.8333C40.2593 51.8333 51.8327 40.26 51.8327 26C51.8327 11.74 40.2593 0.166656 25.9994 0.166656ZM36.3327 28.5833H28.5827V36.3333C28.5827 37.7542 27.4202 38.9167 25.9994 38.9167C24.5785 38.9167 23.416 37.7542 23.416 36.3333V28.5833H15.666C14.2452 28.5833 13.0827 27.4208 13.0827 26C13.0827 24.5792 14.2452 23.4167 15.666 23.4167H23.416V15.6667C23.416 14.2458 24.5785 13.0833 25.9994 13.0833C27.4202 13.0833 28.5827 14.2458 28.5827 15.6667V23.4167H36.3327C37.7535 23.4167 38.916 24.5792 38.916 26C38.916 27.4208 37.7535 28.5833 36.3327 28.5833Z" fill="#DE5C62"/>
</svg>
